<svg width="26" height="33" viewBox="0 0 26 33" fill="none" xmlns="http://www.w3.org/2000/svg">
<path d="M10.725 14.4375L2.85 6.57708V14H0.4V0.437499L8.275 8.28333V0.875H10.725V14.4375ZM13.525 14V0.875H17.9875C19.0375 0.875 19.9903 1.04514 20.8458 1.38542C21.7111 1.72569 22.4549 2.19722 23.0771 2.8C23.709 3.39306 24.1951 4.08819 24.5354 4.88542C24.8757 5.68264 25.0458 6.53333 25.0458 7.4375C25.0458 8.34167 24.8757 9.19236 24.5354 9.98958C24.1951 10.7868 23.709 11.4868 23.0771 12.0896C22.4549 12.6826 21.7111 13.1493 20.8458 13.4896C19.9903 13.8299 19.0375 14 17.9875 14H13.525ZM16.0625 11.6375H17.7542C18.4931 11.6375 19.1444 11.5306 19.7083 11.3167C20.2722 11.0931 20.7438 10.7917 21.1229 10.4125C21.5118 10.0236 21.8035 9.57639 21.9979 9.07083C22.2021 8.56528 22.3042 8.02083 22.3042 7.4375C22.3042 6.85417 22.2021 6.30972 21.9979 5.80417C21.8035 5.28889 21.5118 4.84167 21.1229 4.4625C20.7438 4.07361 20.2722 3.77222 19.7083 3.55833C19.1444 3.34444 18.4931 3.2375 17.7542 3.2375H16.0625V11.6375ZM0.927083 33V17.375H8.94792V19.6146H3.42708V22.4792H7.73264V24.6667H3.42708V30.7083H8.94792V33H0.927083ZM10.0417 33L15.8229 23.9896L11.5521 17.375H14.5208L16.2396 20.0312C16.4595 20.3669 16.6736 20.7141 16.8819 21.0729C17.0903 21.4317 17.316 21.8484 17.559 22.3229C17.7789 21.8484 17.9931 21.4317 18.2014 21.0729C18.4097 20.7025 18.6238 20.3553 18.8438 20.0312L20.5972 17.375H23.4271L19.191 23.9028L24.9896 33H21.9688L18.8264 28.0521C18.6181 27.7049 18.4039 27.3519 18.184 26.9931C17.9641 26.6227 17.7269 26.2002 17.4722 25.7257C17.2176 26.2002 16.9803 26.6227 16.7604 26.9931C16.5521 27.3519 16.338 27.7049 16.1181 28.0521L12.9583 33H10.0417Z" fill="#E4C0C1"/>
</svg>
